<svg xmlns="http://www.w3.org/2000/svg" xmlns:xlink="http://www.w3.org/1999/xlink" version="1.1" class="marks" width="903" height="681" viewBox="0 0 903 681"><rect width="903" height="681" fill="white"/><g fill="none" stroke-miterlimit="10" transform="translate(115,28)"><g class="mark-group role-frame root" role="graphics-object" aria-roledescription="group mark container"><g transform="translate(0,0)"><path class="background" aria-hidden="true" d="M0,0h0v500h0Z"/><g><g class="mark-group role-scope concat_0_group" role="graphics-object" aria-roledescription="group mark container"><g transform="translate(0,0)"><path class="background" aria-hidden="true" d="M0.5,0.5h400v500h-400Z" stroke="#ddd"/><g><g class="mark-group role-axis" aria-hidden="true"><g transform="translate(0.5,500.5)"><path class="background" aria-hidden="true" d="M0,0h0v0h0Z" pointer-events="none"/><g><g class="mark-rule role-axis-grid" pointer-events="none"><line transform="translate(0,0)" x2="0" y2="-500" stroke="#ddd" stroke-width="1" opacity="1"/><line transform="translate(57,0)" x2="0" y2="-500" stroke="#ddd" stroke-width="1" opacity="1"/><line transform="translate(114,0)" x2="0" y2="-500" stroke="#ddd" stroke-width="1" opacity="1"/><line transform="translate(171,0)" x2="0" y2="-500" stroke="#ddd" stroke-width="1" opacity="1"/><line transform="translate(229,0)" x2="0" y2="-500" stroke="#ddd" stroke-width="1" opacity="1"/><line transform="translate(286,0)" x2="0" y2="-500" stroke="#ddd" stroke-width="1" opacity="1"/><line transform="translate(343,0)" x2="0" y2="-500" stroke="#ddd" stroke-width="1" opacity="1"/><line transform="translate(400,0)" x2="0" y2="-500" stroke="#ddd" stroke-width="1" opacity="1"/></g></g><path class="foreground" aria-hidden="true" d="" pointer-events="none" display="none"/></g></g><g class="mark-group role-axis" role="graphics-symbol" aria-roledescription="axis" aria-label="X-axis titled 'Volume' for a linear scale with values from 0 to 35,000"><g transform="translate(0.5,500.5)"><path class="background" aria-hidden="true" d="M0,0h0v0h0Z" pointer-events="none"/><g><g class="mark-rule role-axis-tick" pointer-events="none"><line transform="translate(0,0)" x2="0" y2="5" stroke="#888" stroke-width="1" opacity="1"/><line transform="translate(57,0)" x2="0" y2="5" stroke="#888" stroke-width="1" opacity="1"/><line transform="translate(114,0)" x2="0" y2="5" stroke="#888" stroke-width="1" opacity="1"/><line transform="translate(171,0)" x2="0" y2="5" stroke="#888" stroke-width="1" opacity="1"/><line transform="translate(229,0)" x2="0" y2="5" stroke="#888" stroke-width="1" opacity="1"/><line transform="translate(286,0)" x2="0" y2="5" stroke="#888" stroke-width="1" opacity="1"/><line transform="translate(343,0)" x2="0" y2="5" stroke="#888" stroke-width="1" opacity="1"/><line transform="translate(400,0)" x2="0" y2="5" stroke="#888" stroke-width="1" opacity="1"/></g><g class="mark-text role-axis-label" pointer-events="none"><text text-anchor="start" transform="translate(0,15)" font-family="sans-serif" font-size="10px" fill="#000" opacity="1">0</text><text text-anchor="middle" transform="translate(57.14285714285714,15)" font-family="sans-serif" font-size="10px" fill="#000" opacity="1">5,000</text><text text-anchor="middle" transform="translate(114.28571428571428,15)" font-family="sans-serif" font-size="10px" fill="#000" opacity="1">10,000</text><text text-anchor="middle" transform="translate(171.42857142857142,15)" font-family="sans-serif" font-size="10px" fill="#000" opacity="1">15,000</text><text text-anchor="middle" transform="translate(228.57142857142856,15)" font-family="sans-serif" font-size="10px" fill="#000" opacity="1">20,000</text><text text-anchor="middle" transform="translate(285.7142857142857,15)" font-family="sans-serif" font-size="10px" fill="#000" opacity="1">25,000</text><text text-anchor="middle" transform="translate(342.85714285714283,15)" font-family="sans-serif" font-size="10px" fill="#000" opacity="1">30,000</text><text text-anchor="end" transform="translate(400,15)" font-family="sans-serif" font-size="10px" fill="#000" opacity="1">35,000</text></g><g class="mark-rule role-axis-domain" pointer-events="none"><line transform="translate(0,0)" x2="400" y2="0" stroke="#888" stroke-width="1" opacity="1"/></g><g class="mark-text role-axis-title" pointer-events="none"><text text-anchor="middle" transform="translate(200,30)" font-family="sans-serif" font-size="11px" font-weight="bold" fill="#000" opacity="1">Volume</text></g></g><path class="foreground" aria-hidden="true" d="" pointer-events="none" display="none"/></g></g><g class="mark-group role-axis" role="graphics-symbol" aria-roledescription="axis" aria-label="Y-axis titled 'Neighborhood' for a discrete scale with 20 values: East Atlanta, English Avenue, Inman Park, Berkeley Park, Pittsburgh, ending with Downtown"><g transform="translate(0.5,0.5)"><path class="background" aria-hidden="true" d="M0,0h0v0h0Z" pointer-events="none"/><g><g class="mark-rule role-axis-tick" pointer-events="none"><line transform="translate(0,12)" x2="-5" y2="0" stroke="#888" stroke-width="1" opacity="1"/><line transform="translate(0,37)" x2="-5" y2="0" stroke="#888" stroke-width="1" opacity="1"/><line transform="translate(0,62)" x2="-5" y2="0" stroke="#888" stroke-width="1" opacity="1"/><line transform="translate(0,87)" x2="-5" y2="0" stroke="#888" stroke-width="1" opacity="1"/><line transform="translate(0,112)" x2="-5" y2="0" stroke="#888" stroke-width="1" opacity="1"/><line transform="translate(0,137)" x2="-5" y2="0" stroke="#888" stroke-width="1" opacity="1"/><line transform="translate(0,162)" x2="-5" y2="0" stroke="#888" stroke-width="1" opacity="1"/><line transform="translate(0,187)" x2="-5" y2="0" stroke="#888" stroke-width="1" opacity="1"/><line transform="translate(0,212)" x2="-5" y2="0" stroke="#888" stroke-width="1" opacity="1"/><line transform="translate(0,237)" x2="-5" y2="0" stroke="#888" stroke-width="1" opacity="1"/><line transform="translate(0,262)" x2="-5" y2="0" stroke="#888" stroke-width="1" opacity="1"/><line transform="translate(0,287)" x2="-5" y2="0" stroke="#888" stroke-width="1" opacity="1"/><line transform="translate(0,312)" x2="-5" y2="0" stroke="#888" stroke-width="1" opacity="1"/><line transform="translate(0,337)" x2="-5" y2="0" stroke="#888" stroke-width="1" opacity="1"/><line transform="translate(0,362)" x2="-5" y2="0" stroke="#888" stroke-width="1" opacity="1"/><line transform="translate(0,387)" x2="-5" y2="0" stroke="#888" stroke-width="1" opacity="1"/><line transform="translate(0,412)" x2="-5" y2="0" stroke="#888" stroke-width="1" opacity="1"/><line transform="translate(0,437)" x2="-5" y2="0" stroke="#888" stroke-width="1" opacity="1"/><line transform="translate(0,462)" x2="-5" y2="0" stroke="#888" stroke-width="1" opacity="1"/><line transform="translate(0,487)" x2="-5" y2="0" stroke="#888" stroke-width="1" opacity="1"/></g><g class="mark-text role-axis-label" pointer-events="none"><text text-anchor="end" transform="translate(-7,15.000000000000028)" font-family="sans-serif" font-size="10px" fill="#000" opacity="1">East Atlanta</text><text text-anchor="end" transform="translate(-7,40.00000000000003)" font-family="sans-serif" font-size="10px" fill="#000" opacity="1">English Avenue</text><text text-anchor="end" transform="translate(-7,65.00000000000003)" font-family="sans-serif" font-size="10px" fill="#000" opacity="1">Inman Park</text><text text-anchor="end" transform="translate(-7,90.00000000000003)" font-family="sans-serif" font-size="10px" fill="#000" opacity="1">Berkeley Park</text><text text-anchor="end" transform="translate(-7,115.00000000000003)" font-family="sans-serif" font-size="10px" fill="#000" opacity="1">Pittsburgh</text><text text-anchor="end" transform="translate(-7,140.00000000000003)" font-family="sans-serif" font-size="10px" fill="#000" opacity="1">Home Park</text><text text-anchor="end" transform="translate(-7,165.00000000000003)" font-family="sans-serif" font-size="10px" fill="#000" opacity="1">Grove Park</text><text text-anchor="end" transform="translate(-7,190.00000000000003)" font-family="sans-serif" font-size="10px" fill="#000" opacity="1">Edgewood</text><text text-anchor="end" transform="translate(-7,215.00000000000003)" font-family="sans-serif" font-size="10px" fill="#000" opacity="1">Mechanicsville</text><text text-anchor="end" transform="translate(-7,240.00000000000003)" font-family="sans-serif" font-size="10px" fill="#000" opacity="1">Sylvan Hills</text><text text-anchor="end" transform="translate(-7,265)" font-family="sans-serif" font-size="10px" fill="#000" opacity="1">Grant Park</text><text text-anchor="end" transform="translate(-7,290)" font-family="sans-serif" font-size="10px" fill="#000" opacity="1">Greenbriar</text><text text-anchor="end" transform="translate(-7,315)" font-family="sans-serif" font-size="10px" fill="#000" opacity="1">Vine City</text><text text-anchor="end" transform="translate(-7,340)" font-family="sans-serif" font-size="10px" fill="#000" opacity="1">Lindbergh/Morosgo</text><text text-anchor="end" transform="translate(-7,365)" font-family="sans-serif" font-size="10px" fill="#000" opacity="1">North Buckhead</text><text text-anchor="end" transform="translate(-7,390)" font-family="sans-serif" font-size="10px" fill="#000" opacity="1">Lenox</text><text text-anchor="end" transform="translate(-7,415)" font-family="sans-serif" font-size="10px" fill="#000" opacity="1">West End</text><text text-anchor="end" transform="translate(-7,440)" font-family="sans-serif" font-size="10px" fill="#000" opacity="1">Old Fourth Ward</text><text text-anchor="end" transform="translate(-7,465)" font-family="sans-serif" font-size="10px" fill="#000" opacity="1">Midtown</text><text text-anchor="end" transform="translate(-7,490)" font-family="sans-serif" font-size="10px" fill="#000" opacity="1">Downtown</text></g><g class="mark-rule role-axis-domain" pointer-events="none"><line transform="translate(0,0)" x2="0" y2="500" stroke="#888" stroke-width="1" opacity="1"/></g><g class="mark-text role-axis-title" pointer-events="none"><text text-anchor="middle" transform="translate(-97.1669921875,250) rotate(-90) translate(0,-2)" font-family="sans-serif" font-size="11px" font-weight="bold" fill="#000" opacity="1">Neighborhood</text></g></g><path class="foreground" aria-hidden="true" d="" pointer-events="none" display="none"/></g></g><g class="mark-rect role-mark concat_0_marks" role="graphics-object" aria-roledescription="rect mark container"><path aria-label="Volume: 30330; Neighborhood: Downtown" role="graphics-symbol" aria-roledescription="bar" d="M0,476.25h346.62857142857143v22.5h-346.62857142857143Z" fill="#4c78a8"/><path aria-label="Volume: 22517; Neighborhood: Midtown" role="graphics-symbol" aria-roledescription="bar" d="M0,451.25h257.33714285714285v22.5h-257.33714285714285Z" fill="#4c78a8"/><path aria-label="Volume: 11417; Neighborhood: Old Fourth Ward" role="graphics-symbol" aria-roledescription="bar" d="M0,426.25h130.48v22.5h-130.48Z" fill="#4c78a8"/><path aria-label="Volume: 9693; Neighborhood: West End" role="graphics-symbol" aria-roledescription="bar" d="M0,401.25h110.77714285714286v22.5h-110.77714285714286Z" fill="#4c78a8"/><path aria-label="Volume: 6934; Neighborhood: Lenox" role="graphics-symbol" aria-roledescription="bar" d="M0,376.25h79.24571428571429v22.5h-79.24571428571429Z" fill="#4c78a8"/><path aria-label="Volume: 6666; Neighborhood: North Buckhead" role="graphics-symbol" aria-roledescription="bar" d="M0,351.25h76.18285714285715v22.5h-76.18285714285715Z" fill="#4c78a8"/><path aria-label="Volume: 6369; Neighborhood: Lindbergh/Morosgo" role="graphics-symbol" aria-roledescription="bar" d="M0,326.25h72.78857142857143v22.5h-72.78857142857143Z" fill="#4c78a8"/><path aria-label="Volume: 6328; Neighborhood: Vine City" role="graphics-symbol" aria-roledescription="bar" d="M0,301.25h72.32v22.5h-72.32Z" fill="#4c78a8"/><path aria-label="Volume: 6152; Neighborhood: Greenbriar" role="graphics-symbol" aria-roledescription="bar" d="M0,276.25h70.30857142857143v22.5h-70.30857142857143Z" fill="#4c78a8"/><path aria-label="Volume: 6120; Neighborhood: Grant Park" role="graphics-symbol" aria-roledescription="bar" d="M0,251.25000000000003h69.94285714285714v22.5h-69.94285714285714Z" fill="#4c78a8"/><path aria-label="Volume: 6085; Neighborhood: Sylvan Hills" role="graphics-symbol" aria-roledescription="bar" d="M0,226.25000000000003h69.54285714285714v22.5h-69.54285714285714Z" fill="#4c78a8"/><path aria-label="Volume: 5830; Neighborhood: Mechanicsville" role="graphics-symbol" aria-roledescription="bar" d="M0,201.25000000000003h66.62857142857142v22.5h-66.62857142857142Z" fill="#4c78a8"/><path aria-label="Volume: 5790; Neighborhood: Edgewood" role="graphics-symbol" aria-roledescription="bar" d="M0,176.25000000000003h66.17142857142856v22.5h-66.17142857142856Z" fill="#4c78a8"/><path aria-label="Volume: 5764; Neighborhood: Grove Park" role="graphics-symbol" aria-roledescription="bar" d="M0,151.25000000000003h65.87428571428572v22.5h-65.87428571428572Z" fill="#4c78a8"/><path aria-label="Volume: 5680; Neighborhood: Home Park" role="graphics-symbol" aria-roledescription="bar" d="M0,126.25000000000003h64.91428571428571v22.5h-64.91428571428571Z" fill="#4c78a8"/><path aria-label="Volume: 5673; Neighborhood: Pittsburgh" role="graphics-symbol" aria-roledescription="bar" d="M0,101.25000000000003h64.83428571428571v22.5h-64.83428571428571Z" fill="#4c78a8"/><path aria-label="Volume: 5258; Neighborhood: Berkeley Park" role="graphics-symbol" aria-roledescription="bar" d="M0,76.25000000000003h60.09142857142857v22.5h-60.09142857142857Z" fill="#4c78a8"/><path aria-label="Volume: 5000; Neighborhood: Inman Park" role="graphics-symbol" aria-roledescription="bar" d="M0,51.25000000000003h57.14285714285714v22.5h-57.14285714285714Z" fill="#4c78a8"/><path aria-label="Volume: 4961; Neighborhood: English Avenue" role="graphics-symbol" aria-roledescription="bar" d="M0,26.25000000000003h56.69714285714286v22.5h-56.69714285714286Z" fill="#4c78a8"/><path aria-label="Volume: 4547; Neighborhood: East Atlanta" role="graphics-symbol" aria-roledescription="bar" d="M0,1.2500000000000284h51.965714285714284v22.5h-51.965714285714284Z" fill="#4c78a8"/></g><g class="mark-group role-title"><g transform="translate(200,-17)"><path class="background" aria-hidden="true" d="M0,0h0v0h0Z" pointer-events="none"/><g><g class="mark-text role-title-text" role="graphics-symbol" aria-roledescription="title" aria-label="Title text 'Most Dangerous Neighborhoods'" pointer-events="none"><text text-anchor="middle" transform="translate(0,10)" font-family="sans-serif" font-size="13px" font-weight="bold" fill="#000" opacity="1">Most Dangerous Neighborhoods</text></g></g><path class="foreground" aria-hidden="true" d="" pointer-events="none" display="none"/></g></g></g><path class="foreground" aria-hidden="true" d="" display="none"/></g></g><g class="mark-group role-scope concat_1_group" role="graphics-object" aria-roledescription="group mark container"><g transform="translate(482,0)"><path class="background" aria-hidden="true" d="M0.5,0.5h300v500h-300Z" stroke="#ddd"/><g><g class="mark-group role-axis" aria-hidden="true"><g transform="translate(0.5,0.5)"><path class="background" aria-hidden="true" d="M0,0h0v0h0Z" pointer-events="none"/><g><g class="mark-rule role-axis-grid" pointer-events="none"><line transform="translate(0,500)" x2="300" y2="0" stroke="#ddd" stroke-width="1" opacity="1"/><line transform="translate(0,462)" x2="300" y2="0" stroke="#ddd" stroke-width="1" opacity="1"/><line transform="translate(0,423)" x2="300" y2="0" stroke="#ddd" stroke-width="1" opacity="1"/><line transform="translate(0,385)" x2="300" y2="0" stroke="#ddd" stroke-width="1" opacity="1"/><line transform="translate(0,346)" x2="300" y2="0" stroke="#ddd" stroke-width="1" opacity="1"/><line transform="translate(0,308)" x2="300" y2="0" stroke="#ddd" stroke-width="1" opacity="1"/><line transform="translate(0,269)" x2="300" y2="0" stroke="#ddd" stroke-width="1" opacity="1"/><line transform="translate(0,231)" x2="300" y2="0" stroke="#ddd" stroke-width="1" opacity="1"/><line transform="translate(0,192)" x2="300" y2="0" stroke="#ddd" stroke-width="1" opacity="1"/><line transform="translate(0,154)" x2="300" y2="0" stroke="#ddd" stroke-width="1" opacity="1"/><line transform="translate(0,115)" x2="300" y2="0" stroke="#ddd" stroke-width="1" opacity="1"/><line transform="translate(0,77)" x2="300" y2="0" stroke="#ddd" stroke-width="1" opacity="1"/><line transform="translate(0,38)" x2="300" y2="0" stroke="#ddd" stroke-width="1" opacity="1"/><line transform="translate(0,0)" x2="300" y2="0" stroke="#ddd" stroke-width="1" opacity="1"/></g></g><path class="foreground" aria-hidden="true" d="" pointer-events="none" display="none"/></g></g><g class="mark-group role-axis" role="graphics-symbol" aria-roledescription="axis" aria-label="X-axis titled 'UCR Literal' for a discrete scale with 12 values: LARCENY-FROM VEHICLE, LARCENY-NON VEHICLE, AUTO THEFT, BURGLARY-RESIDENCE, AGG ASSAULT, ending with HOMICIDE"><g transform="translate(0.5,500.5)"><path class="background" aria-hidden="true" d="M0,0h0v0h0Z" pointer-events="none"/><g><g class="mark-rule role-axis-tick" pointer-events="none"><line transform="translate(12,0)" x2="0" y2="5" stroke="#888" stroke-width="1" opacity="1"/><line transform="translate(37,0)" x2="0" y2="5" stroke="#888" stroke-width="1" opacity="1"/><line transform="translate(62,0)" x2="0" y2="5" stroke="#888" stroke-width="1" opacity="1"/><line transform="translate(87,0)" x2="0" y2="5" stroke="#888" stroke-width="1" opacity="1"/><line transform="translate(112,0)" x2="0" y2="5" stroke="#888" stroke-width="1" opacity="1"/><line transform="translate(137,0)" x2="0" y2="5" stroke="#888" stroke-width="1" opacity="1"/><line transform="translate(162,0)" x2="0" y2="5" stroke="#888" stroke-width="1" opacity="1"/><line transform="translate(187,0)" x2="0" y2="5" stroke="#888" stroke-width="1" opacity="1"/><line transform="translate(212,0)" x2="0" y2="5" stroke="#888" stroke-width="1" opacity="1"/><line transform="translate(237,0)" x2="0" y2="5" stroke="#888" stroke-width="1" opacity="1"/><line transform="translate(262,0)" x2="0" y2="5" stroke="#888" stroke-width="1" opacity="1"/><line transform="translate(287,0)" x2="0" y2="5" stroke="#888" stroke-width="1" opacity="1"/></g><g class="mark-text role-axis-label" pointer-events="none"><text text-anchor="end" transform="translate(12,7) rotate(270) translate(0,3)" font-family="sans-serif" font-size="10px" fill="#000" opacity="1">LARCENY-FROM VEHICLE</text><text text-anchor="end" transform="translate(37,7) rotate(270) translate(0,3)" font-family="sans-serif" font-size="10px" fill="#000" opacity="1">LARCENY-NON VEHICLE</text><text text-anchor="end" transform="translate(62,7) rotate(270) translate(0,3)" font-family="sans-serif" font-size="10px" fill="#000" opacity="1">AUTO THEFT</text><text text-anchor="end" transform="translate(87,7) rotate(270) translate(0,3)" font-family="sans-serif" font-size="10px" fill="#000" opacity="1">BURGLARY-RESIDENCE</text><text text-anchor="end" transform="translate(112,7) rotate(270) translate(0,3)" font-family="sans-serif" font-size="10px" fill="#000" opacity="1">AGG ASSAULT</text><text text-anchor="end" transform="translate(137,7) rotate(270) translate(0,3)" font-family="sans-serif" font-size="10px" fill="#000" opacity="1">ROBBERY-PEDESTRIAN</text><text text-anchor="end" transform="translate(162,7) rotate(270) translate(0,3)" font-family="sans-serif" font-size="10px" fill="#000" opacity="1">BURGLARY-NONRES</text><text text-anchor="end" transform="translate(187,7) rotate(270) translate(0,3)" font-family="sans-serif" font-size="10px" fill="#000" opacity="1">BURGLARY</text><text text-anchor="end" transform="translate(212,7) rotate(270) translate(0,3)" font-family="sans-serif" font-size="10px" fill="#000" opacity="1">ROBBERY-COMMERCIAL</text><text text-anchor="end" transform="translate(237,7) rotate(270) translate(0,3)" font-family="sans-serif" font-size="10px" fill="#000" opacity="1">ROBBERY-RESIDENCE</text><text text-anchor="end" transform="translate(262,7) rotate(270) translate(0,3)" font-family="sans-serif" font-size="10px" fill="#000" opacity="1">ROBBERY</text><text text-anchor="end" transform="translate(287,7) rotate(270) translate(0,3)" font-family="sans-serif" font-size="10px" fill="#000" opacity="1">HOMICIDE</text></g><g class="mark-rule role-axis-domain" pointer-events="none"><line transform="translate(0,0)" x2="300" y2="0" stroke="#888" stroke-width="1" opacity="1"/></g><g class="mark-text role-axis-title" pointer-events="none"><text text-anchor="middle" transform="translate(150,144.658203125)" font-family="sans-serif" font-size="11px" font-weight="bold" fill="#000" opacity="1">UCR Literal</text></g></g><path class="foreground" aria-hidden="true" d="" pointer-events="none" display="none"/></g></g><g class="mark-group role-axis" role="graphics-symbol" aria-roledescription="axis" aria-label="Y-axis titled 'Volume' for a linear scale with values from 0 to 130,000"><g transform="translate(0.5,0.5)"><path class="background" aria-hidden="true" d="M0,0h0v0h0Z" pointer-events="none"/><g><g class="mark-rule role-axis-tick" pointer-events="none"><line transform="translate(0,500)" x2="-5" y2="0" stroke="#888" stroke-width="1" opacity="1"/><line transform="translate(0,462)" x2="-5" y2="0" stroke="#888" stroke-width="1" opacity="1"/><line transform="translate(0,423)" x2="-5" y2="0" stroke="#888" stroke-width="1" opacity="1"/><line transform="translate(0,385)" x2="-5" y2="0" stroke="#888" stroke-width="1" opacity="1"/><line transform="translate(0,346)" x2="-5" y2="0" stroke="#888" stroke-width="1" opacity="1"/><line transform="translate(0,308)" x2="-5" y2="0" stroke="#888" stroke-width="1" opacity="1"/><line transform="translate(0,269)" x2="-5" y2="0" stroke="#888" stroke-width="1" opacity="1"/><line transform="translate(0,231)" x2="-5" y2="0" stroke="#888" stroke-width="1" opacity="1"/><line transform="translate(0,192)" x2="-5" y2="0" stroke="#888" stroke-width="1" opacity="1"/><line transform="translate(0,154)" x2="-5" y2="0" stroke="#888" stroke-width="1" opacity="1"/><line transform="translate(0,115)" x2="-5" y2="0" stroke="#888" stroke-width="1" opacity="1"/><line transform="translate(0,77)" x2="-5" y2="0" stroke="#888" stroke-width="1" opacity="1"/><line transform="translate(0,38)" x2="-5" y2="0" stroke="#888" stroke-width="1" opacity="1"/><line transform="translate(0,0)" x2="-5" y2="0" stroke="#888" stroke-width="1" opacity="1"/></g><g class="mark-text role-axis-label" pointer-events="none"><text text-anchor="end" transform="translate(-7,503)" font-family="sans-serif" font-size="10px" fill="#000" opacity="1">0</text><text text-anchor="end" transform="translate(-7,464.53846153846155)" font-family="sans-serif" font-size="10px" fill="#000" opacity="1">10,000</text><text text-anchor="end" transform="translate(-7,426.0769230769231)" font-family="sans-serif" font-size="10px" fill="#000" opacity="1">20,000</text><text text-anchor="end" transform="translate(-7,387.6153846153846)" font-family="sans-serif" font-size="10px" fill="#000" opacity="1">30,000</text><text text-anchor="end" transform="translate(-7,349.15384615384613)" font-family="sans-serif" font-size="10px" fill="#000" opacity="1">40,000</text><text text-anchor="end" transform="translate(-7,310.69230769230774)" font-family="sans-serif" font-size="10px" fill="#000" opacity="1">50,000</text><text text-anchor="end" transform="translate(-7,272.2307692307692)" font-family="sans-serif" font-size="10px" fill="#000" opacity="1">60,000</text><text text-anchor="end" transform="translate(-7,233.76923076923077)" font-family="sans-serif" font-size="10px" fill="#000" opacity="1">70,000</text><text text-anchor="end" transform="translate(-7,195.3076923076923)" font-family="sans-serif" font-size="10px" fill="#000" opacity="1">80,000</text><text text-anchor="end" transform="translate(-7,156.84615384615387)" font-family="sans-serif" font-size="10px" fill="#000" opacity="1">90,000</text><text text-anchor="end" transform="translate(-7,118.38461538461536)" font-family="sans-serif" font-size="10px" fill="#000" opacity="1">100,000</text><text text-anchor="end" transform="translate(-7,79.92307692307693)" font-family="sans-serif" font-size="10px" fill="#000" opacity="1">110,000</text><text text-anchor="end" transform="translate(-7,41.46153846153844)" font-family="sans-serif" font-size="10px" fill="#000" opacity="1">120,000</text><text text-anchor="end" transform="translate(-7,3)" font-family="sans-serif" font-size="10px" fill="#000" opacity="1">130,000</text></g><g class="mark-rule role-axis-domain" pointer-events="none"><line transform="translate(0,500)" x2="0" y2="-500" stroke="#888" stroke-width="1" opacity="1"/></g><g class="mark-text role-axis-title" pointer-events="none"><text text-anchor="middle" transform="translate(-47.1474609375,250) rotate(-90) translate(0,-2)" font-family="sans-serif" font-size="11px" font-weight="bold" fill="#000" opacity="1">Volume</text></g></g><path class="foreground" aria-hidden="true" d="" pointer-events="none" display="none"/></g></g><g class="mark-rect role-mark concat_1_marks" role="graphics-object" aria-roledescription="rect mark container"><path aria-label="UCR Literal: LARCENY-FROM VEHICLE; Volume: 127901" role="graphics-symbol" aria-roledescription="bar" d="M1.25,8.073076923076904h22.5v491.9269230769231h-22.5Z" fill="#4c78a8"/><path aria-label="UCR Literal: LARCENY-NON VEHICLE; Volume: 95293" role="graphics-symbol" aria-roledescription="bar" d="M26.25,133.48846153846156h22.5v366.5115384615384h-22.5Z" fill="#4c78a8"/><path aria-label="UCR Literal: AUTO THEFT; Volume: 55458" role="graphics-symbol" aria-roledescription="bar" d="M51.25,286.7h22.5v213.3h-22.5Z" fill="#4c78a8"/><path aria-label="UCR Literal: BURGLARY-RESIDENCE; Volume: 49576" role="graphics-symbol" aria-roledescription="bar" d="M76.25,309.32307692307694h22.5v190.67692307692306h-22.5Z" fill="#4c78a8"/><path aria-label="UCR Literal: AGG ASSAULT; Volume: 31417" role="graphics-symbol" aria-roledescription="bar" d="M101.25,379.16538461538465h22.5v120.83461538461535h-22.5Z" fill="#4c78a8"/><path aria-label="UCR Literal: ROBBERY-PEDESTRIAN; Volume: 17164" role="graphics-symbol" aria-roledescription="bar" d="M126.25,433.98461538461544h22.5v66.01538461538456h-22.5Z" fill="#4c78a8"/><path aria-label="UCR Literal: BURGLARY-NONRES; Volume: 10950" role="graphics-symbol" aria-roledescription="bar" d="M151.25,457.8846153846154h22.5v42.115384615384585h-22.5Z" fill="#4c78a8"/><path aria-label="UCR Literal: BURGLARY; Volume: 4930" role="graphics-symbol" aria-roledescription="bar" d="M176.25,481.03846153846155h22.5v18.961538461538453h-22.5Z" fill="#4c78a8"/><path aria-label="UCR Literal: ROBBERY-COMMERCIAL; Volume: 2317" role="graphics-symbol" aria-roledescription="bar" d="M201.25,491.0884615384615h22.5v8.911538461538498h-22.5Z" fill="#4c78a8"/><path aria-label="UCR Literal: ROBBERY-RESIDENCE; Volume: 2230" role="graphics-symbol" aria-roledescription="bar" d="M226.25,491.4230769230769h22.5v8.576923076923094h-22.5Z" fill="#4c78a8"/><path aria-label="UCR Literal: ROBBERY; Volume: 2188" role="graphics-symbol" aria-roledescription="bar" d="M251.25,491.5846153846154h22.5v8.415384615384596h-22.5Z" fill="#4c78a8"/><path aria-label="UCR Literal: HOMICIDE; Volume: 1384" role="graphics-symbol" aria-roledescription="bar" d="M276.25,494.67692307692306h22.5v5.32307692307694h-22.5Z" fill="#4c78a8"/></g><g class="mark-group role-title"><g transform="translate(150,-22)"><path class="background" aria-hidden="true" d="M0,0h0v0h0Z" pointer-events="none"/><g><g class="mark-text role-title-text" role="graphics-symbol" aria-roledescription="title" aria-label="Title text 'Top 10 Common Offenses'" pointer-events="none"><text text-anchor="middle" transform="translate(0,10)" font-family="sans-serif" font-size="13px" font-weight="bold" fill="#000" opacity="1">Top 10 Common Offenses</text></g></g><path class="foreground" aria-hidden="true" d="" pointer-events="none" display="none"/></g></g></g><path class="foreground" aria-hidden="true" d="" display="none"/></g></g></g><path class="foreground" aria-hidden="true" d="" display="none"/></g></g></g></svg>